<?xml version="1.0" standalone="no"?>
<!DOCTYPE svg PUBLIC "-//W3C//DTD SVG 1.1//EN" "http://www.w3.org/Graphics/SVG/1.1/DTD/svg11.dtd">
<svg xmlns="http://www.w3.org/2000/svg" xmlns:xlink="http://www.w3.org/1999/xlink" version="1.1" id="Calque_1" x="0px" y="0px" viewBox="0 0 200.64 68.12" style="enable-background:new 0 0 200.64 68.12;" xml:space="preserve" width="200.63999938964844" height="68.12000274658203">
<style type="text/css">
	.st0{fill:#0E2435;}
</style>
<g>
	<path class="st0" d="M23.08,21.03c-1.26,0-2.32,1.06-2.32,2.32v21.33c0,1.3,1.04,2.36,2.32,2.36c1.24,0,2.28-1.08,2.28-2.36V23.35   C25.37,22.09,24.32,21.03,23.08,21.03z"/>
</g>
<g>
	<path class="st0" d="M152.89,20.98c-0.32,0-0.64,0.07-0.95,0.22c-0.83,0.39-1.37,1.26-1.37,2.22v21.27c0,1.3,1.04,2.36,2.32,2.36   c1.24,0,2.28-1.08,2.28-2.36V23.3c0-0.78-0.42-1.54-1.09-1.97C153.71,21.09,153.3,20.98,152.89,20.98z"/>
</g>
<g>
	<path class="st0" d="M101.56,21.05c-1.49,0-2.53,1.04-2.53,2.53v20.93c0,1.49,1.04,2.53,2.53,2.53h13.52c1.08,0,2-0.9,2-1.96   c0-1.04-0.93-1.96-2-1.96h-11.48v-7.26h6.47c1.08,0,1.96-0.85,1.96-1.89c0-1.02-0.88-1.85-1.96-1.85h-6.47v-7.15h11.1   c1.08,0,2-0.92,2-2c0-1.04-0.92-1.92-2-1.92H101.56z"/>
</g>
<g>
	<path class="st0" d="M127.52,36.93V25.3h2.96c5.38,0,8.1,2.85,8.1,8.48c0,4.9-1.86,7.7-5.66,8.48c-0.11,0.02-0.44,0.07-0.44,0.07   c-1.14,0.23-1.94,1.42-1.71,2.54c0.23,1.14,1.41,1.9,2.57,1.67l0.09-0.02c6.3-1.11,10.23-5.86,10.23-12.73   c0-7.63-5.29-12.76-13.17-12.76h-5.52c-1.48,0-2.51,1.03-2.51,2.51v19.49L127.52,36.93z"/>
</g>
<g>
	<path class="st0" d="M87.42,30.99V44.7c0,1.26,1.04,2.32,2.28,2.32c1.28,0,2.36-1.06,2.36-2.32V23.15c0-1.37-1.03-2.09-2.06-2.09   c-0.98,0-1.87,0.78-2.32,1.55l-9.47,16.98l-8-14.41l-5.8,6.97V44.7c0,1.26,1.08,2.32,2.36,2.32c1.22,0,2.24-1.06,2.24-2.32V30.99   l7.27,13.62c0.43,0.8,1.16,1.28,1.94,1.28c0.8,0,1.54-0.48,1.98-1.28L87.42,30.99z"/>
</g>
<g>
	<path class="st0" d="M172.02,20.99c-1.01,0-1.71,0.54-2.19,1.71l-9.31,21c-0.21,0.46-0.32,0.9-0.32,1.32   c0,1.11,0.99,2.02,2.21,2.02c0.95,0,1.77-0.56,2.15-1.45l7.46-17.53h0l7.46,17.53c0.38,0.89,1.2,1.45,2.15,1.45   c1.22,0,2.21-0.9,2.21-2.02c0-0.42-0.11-0.86-0.32-1.32l-9.31-21C173.73,21.53,173.04,20.99,172.02,20.99L172.02,20.99z"/>
</g>
<g>
	<path class="st0" d="M45.56,20.6c-7.38,0-13.37,5.98-13.37,13.37s5.98,13.37,13.37,13.37s13.37-5.98,13.37-13.37   S52.94,20.6,45.56,20.6z M45.53,42.96c-4.99,0-9.03-4.04-9.03-9.03c0-4.99,4.04-9.03,9.03-9.03c4.99,0,9.03,4.04,9.03,9.03   C54.56,38.92,50.52,42.96,45.53,42.96z"/>
</g>
</svg>