<?xml version="1.0" standalone="no"?>
<!DOCTYPE svg PUBLIC "-//W3C//DTD SVG 1.1//EN" "http://www.w3.org/Graphics/SVG/1.1/DTD/svg11.dtd">
<svg xmlns="http://www.w3.org/2000/svg" id="SIMPLE_L" width="282.3299865722656" height="39" viewBox="0 0 282.33 39"><defs><style>.cls-1{fill:#fff;}.cls-2{fill:#245789;}</style></defs><rect class="cls-2" x="24.58" y="1.11" width="12.29" height="12.29"/><polygon class="cls-2" points="36.87 25.7 36.87 37.99 0 37.99 0 1.11 12.29 1.11 12.29 25.7 36.87 25.7"/><g><path class="cls-1" d="M64.8,37.99V1.11h9.4V37.99h-9.4Zm8.39,0v-8.18h14.95v8.18h-14.95Z"/><path class="cls-1" d="M95.11,37.99L106.94,1.11h15.05l12.23,36.88h-9.7l-9.5-30.31,2.68,1.01h-6.67l2.73-1.01-9.24,30.31h-9.4Zm9.65-8.54l2.83-7.68h13.99l2.83,7.68h-19.65Z"/><path class="cls-1" d="M137.25,9.3V1.11h29.6V9.3h-29.6Zm10.1,28.69V8.29h9.4v29.7h-9.4Z"/><path class="cls-1" d="M176.75,37.99V1.11h9.4V37.99h-9.4Z"/><path class="cls-1" d="M216,39c-3.33,0-6.2-.58-8.59-1.74-2.39-1.16-4.36-2.69-5.91-4.6-1.55-1.9-2.69-3.97-3.44-6.19-.74-2.22-1.11-4.38-1.11-6.47v-1.11c0-2.32,.38-4.61,1.14-6.85,.76-2.24,1.92-4.27,3.49-6.09s3.53-3.27,5.89-4.35c2.36-1.08,5.12-1.62,8.28-1.62,3.37,0,6.36,.63,8.97,1.9,2.61,1.26,4.71,3.03,6.29,5.3,1.58,2.27,2.51,4.91,2.78,7.91h-9.4c-.24-1.28-.74-2.39-1.52-3.33-.78-.94-1.77-1.67-2.98-2.2-1.21-.52-2.59-.78-4.14-.78-1.45,0-2.75,.25-3.92,.76-1.16,.51-2.14,1.22-2.93,2.15-.79,.93-1.4,2.05-1.82,3.36-.42,1.31-.63,2.8-.63,4.45s.21,3.13,.63,4.45c.42,1.31,1.04,2.44,1.87,3.38,.82,.94,1.83,1.66,3.01,2.15,1.18,.49,2.53,.73,4.04,.73,2.36,0,4.35-.57,5.99-1.72,1.63-1.15,2.62-2.68,2.95-4.6h9.4c-.3,2.76-1.23,5.29-2.78,7.58-1.55,2.29-3.64,4.12-6.26,5.48-2.63,1.36-5.73,2.05-9.3,2.05Z"/><path class="cls-1" d="M262.43,39c-3.37,0-6.3-.58-8.79-1.74-2.49-1.16-4.56-2.69-6.21-4.6-1.65-1.9-2.88-3.97-3.69-6.19s-1.21-4.38-1.21-6.47v-1.11c0-2.32,.42-4.61,1.26-6.85,.84-2.24,2.1-4.27,3.79-6.09,1.68-1.82,3.76-3.27,6.24-4.35,2.48-1.08,5.35-1.62,8.61-1.62s6.09,.54,8.56,1.62c2.48,1.08,4.55,2.53,6.24,4.35,1.68,1.82,2.96,3.85,3.81,6.09,.86,2.24,1.29,4.52,1.29,6.85v1.11c0,2.09-.41,4.24-1.24,6.47-.83,2.22-2.06,4.29-3.71,6.19-1.65,1.9-3.72,3.44-6.21,4.6-2.49,1.16-5.41,1.74-8.74,1.74Zm0-8.79c1.62,0,3.06-.27,4.34-.81,1.28-.54,2.37-1.3,3.28-2.27,.91-.98,1.6-2.11,2.07-3.41,.47-1.3,.71-2.7,.71-4.22,0-1.62-.24-3.08-.73-4.39-.49-1.31-1.19-2.44-2.1-3.38-.91-.94-2-1.67-3.28-2.17-1.28-.51-2.71-.76-4.29-.76s-3.07,.25-4.34,.76c-1.28,.51-2.37,1.23-3.28,2.17-.91,.94-1.6,2.07-2.07,3.38-.47,1.31-.71,2.78-.71,4.39,0,1.52,.24,2.92,.71,4.22,.47,1.3,1.16,2.43,2.07,3.41,.91,.98,2,1.74,3.28,2.27,1.28,.54,2.73,.81,4.34,.81Z"/></g></svg>