<?xml version="1.0" standalone="no"?>
<!DOCTYPE svg PUBLIC "-//W3C//DTD SVG 20010904//EN" "http://www.w3.org/TR/2001/REC-SVG-20010904/DTD/svg10.dtd">
<svg xmlns="http://www.w3.org/2000/svg" version="1.0" width="1200" height="600" viewBox="0 0 1200.000000 600.000000" preserveAspectRatio="xMidYMid meet">

<g transform="translate(0.000000,600.000000) scale(0.100000,-0.100000)" fill="#000000" stroke="none">
<path d="M5670 4779 c-473 -44 -910 -169 -1305 -373 -271 -140 -437 -258 -643 -460 -187 -183 -299 -326 -412 -528 l-32 -58 84 0 c102 0 162 17 248 69 36 21 97 48 135 60 86 26 106 38 225 140 117 101 187 148 265 179 33 13 80 40 105 58 24 19 54 37 66 40 30 8 72 -16 142 -81 37 -34 80 -63 115 -76 l57 -22 11 -58 12 -59 106 -63 c131 -78 173 -97 212 -97 52 0 141 30 197 67 94 62 232 120 312 133 123 19 133 25 268 151 69 65 131 119 137 119 6 0 27 -16 46 -36 18 -20 46 -42 60 -49 25 -14 28 -12 73 40 66 77 251 228 377 309 26 16 27 16 75 -24 29 -24 59 -40 74 -40 26 0 61 -30 107 -93 l21 -27 36 49 c27 39 44 52 77 61 39 11 43 10 71 -17 16 -15 45 -56 65 -90 19 -35 38 -65 43 -68 5 -3 18 11 30 30 12 19 28 35 35 35 14 0 75 -59 75 -73 0 -4 21 -17 46 -27 45 -20 109 -79 237 -222 33 -38 64 -68 69 -68 4 0 27 -19 51 -42 23 -24 54 -49 69 -57 15 -8 53 -36 84 -62 68 -58 88 -63 429 -114 132 -20 271 -43 308 -51 70 -14 197 -19 197 -7 0 16 -107 206 -165 293 -233 349 -543 619 -955 833 -409 213 -893 347 -1355 377 -174 11 -463 11 -585 -1z"/>
<path d="M2505 3060 c-3 -5 10 -16 29 -24 30 -12 35 -20 41 -58 3 -24 5 -266 3 -538 l-3 -495 -37 -18 c-21 -10 -38 -23 -38 -28 0 -5 75 -9 175 -9 149 0 175 2 175 15 0 9 -9 15 -25 15 -14 0 -37 11 -50 25 l-25 24 0 423 0 423 208 -315 c114 -173 252 -384 307 -468 l100 -152 95 2 95 3 5 563 c5 543 6 564 24 578 11 8 28 14 38 14 10 0 18 7 18 15 0 13 -26 15 -176 15 -132 0 -175 -3 -172 -12 3 -7 18 -16 34 -20 67 -17 66 -12 68 -380 1 -207 -3 -335 -9 -338 -9 -5 -64 77 -371 553 l-128 197 -187 0 c-111 0 -190 -4 -194 -10z"/>
<path d="M3813 3063 c-58 -4 -68 -18 -26 -34 67 -25 63 11 63 -550 l0 -508 -26 -20 c-15 -12 -33 -21 -40 -21 -8 0 -14 -9 -14 -20 0 -20 7 -20 480 -20 377 0 480 3 480 13 0 36 21 286 26 310 5 24 3 27 -20 27 -20 0 -27 -6 -32 -27 -14 -62 -46 -120 -73 -136 -25 -15 -61 -17 -265 -17 l-236 0 0 180 0 180 134 0 c157 0 187 -8 209 -55 31 -65 37 -42 37 140 0 96 -4 175 -9 175 -5 0 -14 -13 -21 -29 -25 -60 -37 -65 -200 -69 l-150 -4 0 161 0 161 229 0 229 0 31 -26 c17 -14 36 -43 42 -65 7 -22 18 -39 27 -39 13 0 14 20 8 142 -4 79 -10 145 -12 148 -6 6 -802 9 -871 3z"/>
<path d="M4850 3061 c0 -5 15 -18 34 -29 l34 -20 6 -213 c4 -118 6 -356 4 -529 l-3 -314 -35 -24 c-19 -13 -36 -27 -38 -33 -2 -5 67 -9 173 -9 133 0 176 3 173 12 -3 7 -18 16 -34 20 -67 17 -64 1 -62 461 l3 417 183 -278 c101 -152 238 -359 304 -459 l120 -183 94 0 94 0 0 549 c0 302 3 557 6 566 4 9 24 25 46 36 21 11 36 24 33 29 -4 6 -78 10 -176 10 -137 0 -169 -3 -169 -14 0 -7 13 -16 28 -19 16 -3 38 -14 50 -24 l22 -18 -2 -351 -3 -351 -150 231 c-82 127 -195 302 -252 389 l-103 157 -190 0 c-106 0 -190 -4 -190 -9z"/>
<path d="M6133 3064 c-33 -8 -28 -21 15 -41 l37 -18 3 -495 c1 -272 0 -510 -3 -528 -5 -25 -14 -37 -41 -49 -18 -9 -34 -20 -34 -24 0 -17 102 -21 363 -16 300 5 362 15 490 76 199 96 327 300 327 520 0 121 -13 182 -60 278 -67 137 -189 230 -359 274 -66 18 -116 21 -396 24 -176 2 -330 1 -342 -1z m596 -183 c195 -61 302 -231 288 -459 -10 -163 -99 -279 -262 -338 -54 -20 -85 -24 -175 -24 l-110 0 0 420 0 420 99 0 c69 0 118 -6 160 -19z"/>
<path d="M7617 3063 c-12 -11 -8 -23 7 -23 8 0 24 -8 37 -19 l23 -19 -33 -88 c-50 -132 -318 -810 -348 -879 -28 -65 -56 -101 -85 -111 -10 -3 -18 -12 -18 -20 0 -12 32 -14 190 -14 162 0 190 2 190 15 0 8 -7 15 -15 15 -8 0 -26 5 -41 12 -25 12 -26 15 -21 63 4 27 24 97 45 155 l40 105 182 0 183 0 30 -90 c34 -105 46 -198 28 -219 -7 -8 -26 -18 -42 -21 -16 -4 -29 -13 -29 -21 0 -12 108 -14 744 -14 l743 0 6 58 c4 31 10 108 13 171 6 93 5 113 -6 109 -8 -2 -21 -24 -29 -49 -43 -119 -42 -119 -347 -119 -193 0 -245 3 -241 13 3 6 136 230 297 497 l291 485 -48 7 c-26 3 -231 7 -454 7 l-406 1 -7 -82 c-3 -46 -9 -111 -12 -145 -5 -51 -4 -63 8 -63 8 0 19 15 26 33 7 19 24 44 38 58 25 24 29 24 241 27 l215 3 -20 -33 c-18 -29 -257 -431 -475 -798 -44 -74 -84 -140 -89 -147 -18 -22 -74 15 -103 68 -14 27 -102 280 -196 564 l-170 515 -168 0 c-92 0 -171 -3 -174 -7z m233 -459 c28 -110 50 -200 50 -201 0 -2 -57 -3 -126 -3 -116 0 -126 1 -121 18 18 61 141 391 144 388 2 -2 26 -93 53 -202z"/>
<path d="M7148 1733 c-21 -25 -41 -64 -35 -70 12 -11 48 11 77 48 l32 39 -30 0 c-16 0 -36 -8 -44 -17z"/>
<path d="M8170 1445 l0 -225 220 0 220 0 0 225 0 225 -220 0 -220 0 0 -225z m260 90 l0 -45 51 0 50 0 -3 -47 -3 -48 -47 -3 -48 -3 0 -40 0 -39 -45 0 -45 0 0 39 c0 40 0 40 -42 43 l-43 3 0 45 0 45 43 3 42 3 0 45 0 44 45 0 45 0 0 -45z"/>
<path d="M5232 1511 c-45 -77 -83 -150 -85 -163 -2 -22 1 -23 91 -26 l92 -3 0 -49 c0 -47 2 -50 25 -50 23 0 25 3 25 49 0 49 1 50 32 53 22 2 34 9 36 21 3 14 -4 17 -32 17 l-36 0 0 145 0 145 -33 0 c-32 0 -36 -5 -115 -139z m98 -46 l0 -105 -65 0 c-36 0 -65 3 -65 6 0 9 121 204 126 204 2 0 4 -47 4 -105z"/>
<path d="M5666 1642 c-2 -4 24 -100 59 -212 54 -176 66 -205 84 -208 14 -2 24 4 31 20 24 56 120 383 116 395 -3 7 -13 13 -23 13 -15 0 -28 -31 -67 -161 -57 -187 -51 -187 -111 11 -20 69 -42 131 -47 138 -12 14 -34 16 -42 4z"/>
<path d="M6080 1610 c-6 -22 -33 -113 -61 -202 -27 -88 -49 -167 -49 -174 0 -8 10 -14 24 -14 21 0 27 8 40 54 9 30 16 59 16 65 0 8 24 11 77 9 l77 -3 19 -62 c16 -55 22 -63 43 -63 13 0 24 4 24 9 0 11 -117 401 -122 406 -1 2 -20 6 -40 10 -36 7 -37 7 -48 -35z m83 -120 l24 -85 -27 -6 c-42 -9 -92 1 -86 17 3 7 15 50 27 94 12 44 26 77 30 73 4 -4 18 -46 32 -93z"/>
<path d="M6370 1435 l0 -216 123 3 c114 3 122 4 122 23 0 18 -8 20 -97 23 l-98 3 -2 187 c-3 185 -3 187 -25 190 l-23 3 0 -216z"/>
<path d="M6690 1435 l0 -215 125 0 125 0 0 25 0 25 -100 0 -100 0 0 190 0 190 -25 0 -25 0 0 -215z"/>
<path d="M7010 1436 l0 -216 136 0 c135 0 135 0 132 23 -3 21 -8 22 -110 25 l-108 3 0 74 0 74 73 3 c64 3 72 5 72 23 0 18 -8 20 -72 23 l-73 3 0 64 0 65 105 0 c98 0 105 1 105 20 0 17 -7 20 -47 20 -27 0 -85 3 -130 7 l-83 6 0 -217z"/>
<path d="M7362 1438 l3 -213 133 -3 133 -3 -3 23 c-3 22 -7 23 -111 26 -93 2 -108 5 -103 18 3 9 6 42 6 74 l0 58 69 4 c75 4 87 9 78 33 -5 12 -23 15 -83 15 -65 0 -75 2 -70 16 3 9 6 38 6 65 l0 49 100 0 100 0 0 25 0 25 -130 0 -130 0 2 -212z"/>
<path d="M7760 1639 c-50 -18 -78 -110 -47 -153 7 -9 55 -38 107 -65 l95 -47 0 -45 c0 -43 -1 -44 -43 -59 -39 -13 -45 -13 -76 4 -18 10 -39 29 -46 42 -14 24 -44 32 -55 14 -10 -16 34 -79 65 -95 40 -21 129 -19 160 2 36 24 48 43 55 83 11 65 -5 86 -106 135 -112 55 -119 60 -119 94 0 38 17 51 68 51 35 0 49 -6 74 -30 53 -53 91 -32 46 25 -38 48 -115 67 -178 44z"/>
</g>
</svg>