<?xml version="1.0" encoding="UTF-8"?>
<svg width="146px" height="75px" viewBox="0 0 146 75" version="1.1" xmlns="http://www.w3.org/2000/svg" xmlns:xlink="http://www.w3.org/1999/xlink">
    <title>Nendaz logo</title>

    <style>
    svg > use { display: none; }
    svg > use:target { display: inline; }
    </style>

    <defs>
        <g id="nendaz-logo" stroke="none">
            <path transform="translate(0, 36)" d="M1.779,2.463 C1.779,1.38 1.314,0.877 0,0.838 L0,0.103 C1.701,0.219 3.209,0.336 4.641,0.336 C5.684,0.336 6.845,0.336 8.043,0.103 L18.717,16.654 L18.794,16.654 L18.794,3.004 C18.794,0.992 17.518,0.838 16.474,0.838 L16.474,0.103 C17.751,0.219 18.988,0.336 20.187,0.336 C21.463,0.336 22.739,0.219 23.976,0.103 L23.976,0.838 C22.662,0.877 22.197,1.38 22.197,2.463 L22.197,25.086 L18.098,25.086 L5.259,5.594 L5.182,5.594 L5.182,22.186 C5.182,24.196 6.458,24.352 7.502,24.352 L7.502,25.086 C6.226,24.971 4.988,24.853 3.79,24.853 C2.513,24.853 1.237,24.971 0,25.086 L0,24.352 C1.314,24.312 1.779,23.81 1.779,22.728 L1.779,2.463"></path>
            <path d="M28.226,38.694 C28.226,37.611 27.762,37.109 26.447,37.07 L26.447,36.336 L45.822,36.336 C45.861,38.463 45.938,40.512 46.131,42.601 L45.396,42.601 C45.01,40.474 44.468,39.739 42.38,39.739 L33.95,39.739 L33.95,46.429 L39.248,46.429 C40.988,46.429 41.258,45.849 41.491,44.457 L42.225,44.457 C42.109,45.424 41.993,47.086 41.993,48.131 C41.993,49.174 42.109,50.875 42.225,51.805 L41.491,51.805 C41.258,50.411 40.988,49.832 39.248,49.832 L33.95,49.832 L33.95,57.449 L42.806,57.449 C44.894,57.449 45.551,56.755 46.209,53.507 L47.175,53.507 C46.828,56.678 46.75,58.728 46.711,60.853 L26.447,60.853 L26.447,60.118 C27.762,60.08 28.226,59.577 28.226,58.494 L28.226,38.694"></path>
            <path d="M50.769,38.463 C50.769,37.38 50.304,36.877 48.99,36.838 L48.99,36.103 C50.691,36.219 52.199,36.336 53.63,36.336 C54.674,36.336 55.834,36.336 57.033,36.103 L67.707,52.654 L67.784,52.654 L67.784,39.004 C67.784,36.992 66.508,36.838 65.464,36.838 L65.464,36.103 C66.74,36.219 67.978,36.336 69.177,36.336 C70.453,36.336 71.729,36.219 72.965,36.103 L72.965,36.838 C71.651,36.877 71.188,37.38 71.188,38.463 L71.188,61.086 L67.088,61.086 L54.249,41.594 L54.172,41.594 L54.172,58.186 C54.172,60.196 55.448,60.352 56.492,60.352 L56.492,61.086 C55.215,60.971 53.978,60.853 52.779,60.853 C51.503,60.853 50.228,60.971 48.99,61.086 L48.99,60.352 C50.304,60.312 50.769,59.81 50.769,58.728 L50.769,38.463"></path>
            <path d="M82.94,57.449 L85.879,57.449 C90.829,57.449 94.502,53.814 94.502,49.406 C94.502,43.953 91.68,39.739 85.297,39.739 L82.94,39.739 L82.94,57.449 Z M77.215,38.694 C77.215,37.611 76.752,37.109 75.438,37.07 L75.438,36.336 L87.194,36.336 C93.768,36.336 100.225,39.739 100.225,48.286 C100.225,55.981 93.768,60.853 86.575,60.853 L75.438,60.853 L75.438,60.118 C76.752,60.08 77.215,59.577 77.215,58.494 L77.215,38.694 L77.215,38.694 Z"></path>
            <path d="M112.977,50.258 C112.165,47.744 111.508,45.269 110.733,41.363 L110.657,41.363 C109.768,44.457 108.53,47.512 107.524,50.258 L112.977,50.258 Z M98.166,60.352 C99.288,60.196 99.79,59.577 100.176,58.572 L107.756,39.352 C107.989,38.772 108.258,38.231 108.258,37.844 C108.258,37.456 107.834,36.838 106.79,36.838 L106.79,36.103 C108.028,36.219 109.227,36.336 110.426,36.336 C111.624,36.336 112.862,36.219 114.059,36.103 L121.174,57.838 C121.754,59.539 122.336,60.041 123.497,60.352 L123.497,61.086 C121.872,60.971 120.209,60.853 118.584,60.853 C116.922,60.853 115.258,60.971 113.596,61.086 L113.596,60.352 C115.028,60.08 115.53,59.77 115.53,58.881 C115.53,58.339 115.336,57.449 115.143,56.947 L113.905,53.195 L106.364,53.195 L104.663,57.76 C104.469,58.301 104.354,58.728 104.354,59.113 C104.354,59.81 104.895,60.273 106.17,60.352 L106.17,61.086 C104.856,60.971 103.502,60.853 102.188,60.853 C100.834,60.853 99.52,60.971 98.166,61.086 L98.166,60.352 L98.166,60.352 Z"></path>
            <path d="M128.68,39.739 C126.592,39.739 125.819,40.551 125.625,42.406 L124.891,42.406 C125.084,40.397 125.354,38.231 125.354,36.336 L144.614,36.336 L131.852,57.449 L140.282,57.449 C142.95,57.449 144.034,57.256 144.69,53.853 L145.424,53.853 C145.116,56.251 144.883,58.609 144.883,60.853 L123.499,60.853 L136.106,39.739 L128.68,39.739"></path>
            <polygon fill="#D52B1E" points="118.37 74.926 127.749 74.926 127.749 65.547 118.37 65.547"></polygon>
            <polygon fill="white" points="122.12 73.051 123.997 73.051 123.997 67.424 122.12 67.424"></polygon>
            <g transform="translate(16.000000, 0.000000)">
                <polygon fill="white" points="104.245 71.174 109.872 71.174 109.872 69.299 104.245 69.299"></polygon>
                <path d="M93.981,27.568 C93.465,27.313 92.961,27.04 92.409,26.829 C92.016,26.666 91.993,26.057 91.561,25.944 C91.522,25.303 90.604,25.734 90.715,24.91 C90.323,24.997 90.153,24.811 89.868,24.764 C88.319,22.375 86.674,21.1 84.788,19.122 C84.27,19.113 83.903,18.927 83.457,18.829 C82.784,18.125 82.434,17.027 81.401,16.764 C80.626,16.896 80.836,18.236 80.073,18.385 C79.477,17.381 79.092,16.133 78.377,15.287 C78.041,14.892 77.569,14.601 77.169,14.255 C76.702,14.521 76.149,14.685 75.475,14.696 C74.909,15.283 74.784,16.41 74.024,16.764 C73.221,16.023 72.786,14.826 71.846,14.255 C70.034,14.646 69.961,12.914 68.702,12.631 C66.522,14.17 64.649,15.321 62.776,17.09 C62.106,17.724 61.35,18.195 60.719,18.86 L60.274,19.459 L59.588,20.533 C58.698,20.759 57.086,19.069 56.829,18.221 C54.651,19.528 53.41,22.035 51.107,23.414 C49.257,24.522 47.466,23.742 45.587,24.805 C44.764,25.27 41.897,26.341 41.236,27.33 C40.773,28.022 39.377,27.576 38.385,28.33 C37.794,28.778 35.049,27.736 34.692,27.329 C34.262,26.837 32.898,26.166 32.34,25.793 C31.898,25.496 31.241,25.429 30.92,24.961 C30.523,24.383 30.795,22.731 30.2,22.402 C29.193,21.845 28.357,22.104 27.35,21.168 C26.512,20.39 25.453,18.596 24.146,18.714 C23.564,18.767 23.012,19.104 22.607,19.508 C22.098,20.017 21.481,20.522 20.896,20.64 C18.975,21.023 16.478,22.863 15.103,24.194 C13.893,25.365 11.975,27.273 10.423,27.432 C9.112,27.566 7.945,28.201 6.898,28.981 C5.749,29.838 5.455,29.797 3.937,30.193 C2.757,30.502 1.555,29.852 0.282,30.229 C10.888,9.234 36.291,-0.245 58.643,0.265 C80.538,0.765 105.083,11.106 114.34,32.275 C112.772,31.902 111.463,32.355 109.848,31.749 C108.055,31.076 97.02,30.26 95.461,29.146 L93.981,27.568"></path>
            </g>
            <path d="M56.303,71.921 L59.192,67.193 L59.192,71.921 L56.303,71.921 Z M60.213,65.992 L58.814,65.992 L55.186,71.957 L55.175,71.975 L55.175,72.821 L59.192,72.821 L59.192,74.879 L60.213,74.879 L60.213,72.821 L61.714,72.821 L61.714,71.921 L60.213,71.921 L60.213,65.992 L60.213,65.992 Z"></path>
            <polyline points="72.485 65.992 71.348 65.992 69.225 73.01 67.115 65.992 65.99 65.992 68.718 74.826 68.734 74.879 69.728 74.879 72.456 66.09 72.485 65.992"></polyline>
            <path d="M75.862,66.82 L77.078,71.17 L74.627,71.17 L75.842,66.82 L75.862,66.82 Z M76.628,65.992 L75.076,65.992 L72.373,74.781 L72.344,74.879 L73.517,74.879 L74.341,72.144 L77.363,72.144 L78.169,74.825 L78.185,74.879 L79.36,74.879 L76.644,66.045 L76.628,65.992 L76.628,65.992 Z"></path>
            <polyline points="81.898 65.992 80.779 65.992 80.779 74.879 86.037 74.879 86.037 73.905 81.898 73.905 81.898 65.992"></polyline>
            <polyline points="88.624 65.992 87.507 65.992 87.507 74.879 92.763 74.879 92.763 73.905 88.624 73.905 88.624 65.992"></polyline>
            <polyline points="98.824 63.814 97.293 63.814 96.123 65.682 97.102 65.682 98.824 63.814"></polyline>
            <polyline points="95.353 70.716 98.39 70.716 98.39 69.742 95.353 69.742 95.353 66.965 99.624 66.965 99.624 65.992 94.234 65.992 94.234 74.879 99.867 74.879 99.867 73.905 95.353 73.905 95.353 70.716"></polyline>
            <polyline points="102.746 70.716 105.783 70.716 105.783 69.742 102.746 69.742 102.746 66.965 107.017 66.965 107.017 65.992 101.628 65.992 101.628 74.879 107.259 74.879 107.259 73.905 102.746 73.905 102.746 70.716"></polyline>
            <path d="M111.668,69.705 C110.563,69.293 109.609,68.938 109.619,68.125 C109.629,67.311 110.197,66.844 111.176,66.844 C112.168,66.844 112.902,67.393 113.137,68.312 L113.155,68.383 L114.177,68.155 L114.152,68.077 C113.699,66.654 112.651,65.871 111.202,65.871 C109.636,65.871 108.5,66.849 108.5,68.196 C108.5,69.702 109.936,70.235 111.203,70.706 C112.34,71.128 113.414,71.527 113.414,72.528 C113.414,73.452 112.706,74.026 111.565,74.026 C110.527,74.026 109.781,73.448 109.348,72.309 L109.322,72.239 L108.293,72.605 L108.327,72.68 C108.802,73.76 109.595,75 111.516,75 C114.237,75 114.531,73.152 114.531,72.358 C114.531,70.77 113.01,70.204 111.668,69.705"></path>
        </g>
    </defs>

    <use href="#nendaz-logo" fill="#111111" id="black"></use>
    <use href="#nendaz-logo" fill="white" id="white"></use>
</svg>
